<mxfile host="65bd71144e">
    <diagram name="第 1 页" id="stCVOS7ZsGoPttf3eohX">
        <mxGraphModel dx="571" dy="599" grid="1" gridSize="10" guides="1" tooltips="1" connect="1" arrows="1" fold="1" page="1" pageScale="1" pageWidth="827" pageHeight="1169" math="0" shadow="0">
            <root>
                <mxCell id="0"/>
                <mxCell id="1" parent="0"/>
                <mxCell id="faMxNMBbkJ3jtOSPo69z-1" value="auto" style="rounded=0;whiteSpace=wrap;html=1;" parent="1" vertex="1">
                    <mxGeometry x="110" y="90" width="630" height="430" as="geometry"/>
                </mxCell>
                <mxCell id="faMxNMBbkJ3jtOSPo69z-2" value="2" style="rounded=0;whiteSpace=wrap;html=1;" parent="1" vertex="1">
                    <mxGeometry x="110" y="90" width="630" height="60" as="geometry"/>
                </mxCell>
                <mxCell id="faMxNMBbkJ3jtOSPo69z-3" value="3" style="rounded=0;whiteSpace=wrap;html=1;" parent="1" vertex="1">
                    <mxGeometry x="110" y="90" width="120" height="60" as="geometry"/>
                </mxCell>
                <mxCell id="faMxNMBbkJ3jtOSPo69z-4" value="1" style="rounded=0;whiteSpace=wrap;html=1;" parent="1" vertex="1">
                    <mxGeometry x="110" y="150" width="120" height="370" as="geometry"/>
                </mxCell>
                <mxCell id="faMxNMBbkJ3jtOSPo69z-5" value="3" style="rounded=0;whiteSpace=wrap;html=1;" parent="1" vertex="1">
                    <mxGeometry x="620" y="90" width="120" height="60" as="geometry"/>
                </mxCell>
                <mxCell id="faMxNMBbkJ3jtOSPo69z-6" value="1" style="rounded=0;whiteSpace=wrap;html=1;" parent="1" vertex="1">
                    <mxGeometry x="620" y="150" width="120" height="370" as="geometry"/>
                </mxCell>
                <mxCell id="faMxNMBbkJ3jtOSPo69z-7" value="3" style="rounded=0;whiteSpace=wrap;html=1;" parent="1" vertex="1">
                    <mxGeometry x="230" y="90" width="20" height="60" as="geometry"/>
                </mxCell>
                <mxCell id="faMxNMBbkJ3jtOSPo69z-8" value="1" style="rounded=0;whiteSpace=wrap;html=1;" parent="1" vertex="1">
                    <mxGeometry x="230" y="150" width="20" height="370" as="geometry"/>
                </mxCell>
                <mxCell id="faMxNMBbkJ3jtOSPo69z-9" value="3" style="rounded=0;whiteSpace=wrap;html=1;" parent="1" vertex="1">
                    <mxGeometry x="600" y="90" width="20" height="60" as="geometry"/>
                </mxCell>
                <mxCell id="faMxNMBbkJ3jtOSPo69z-10" value="1" style="rounded=0;whiteSpace=wrap;html=1;" parent="1" vertex="1">
                    <mxGeometry x="600" y="150" width="20" height="370" as="geometry"/>
                </mxCell>
                <mxCell id="2" value="阴影" style="rounded=0;whiteSpace=wrap;html=1;" parent="1" vertex="1">
                    <mxGeometry x="230" y="10" width="20" height="60" as="geometry"/>
                </mxCell>
                <mxCell id="3" value="阴影" style="rounded=0;whiteSpace=wrap;html=1;" parent="1" vertex="1">
                    <mxGeometry x="600" y="10" width="20" height="60" as="geometry"/>
                </mxCell>
            </root>
        </mxGraphModel>
    </diagram>
</mxfile>